<?xml version="1.0" encoding="UTF-8" standalone="no"?>
<!-- Created with Inkscape (http://www.inkscape.org/) -->

<svg
   xmlns:dc="http://purl.org/dc/elements/1.1/"
   xmlns:cc="http://creativecommons.org/ns#"
   xmlns:rdf="http://www.w3.org/1999/02/22-rdf-syntax-ns#"
   xmlns:svg="http://www.w3.org/2000/svg"
   xmlns="http://www.w3.org/2000/svg"
   xmlns:xlink="http://www.w3.org/1999/xlink"
   xmlns:sodipodi="http://sodipodi.sourceforge.net/DTD/sodipodi-0.dtd"
   xmlns:inkscape="http://www.inkscape.org/namespaces/inkscape"
   width="210mm"
   height="297mm"
   viewBox="0 0 210 297"
   version="1.1"
   id="svg8"
   sodipodi:docname="cane_pic2.svg"
   inkscape:version="0.92.3 (3ce5693, 2018-03-11)">
  <defs
     id="defs2">
    <rect
       height="327.3"
       width="75"
       y="376.7"
       x="922"
       id="SVGID_1_" />
  </defs>
  <sodipodi:namedview
     id="base"
     pagecolor="#ffffff"
     bordercolor="#666666"
     borderopacity="1.0"
     inkscape:pageopacity="0.0"
     inkscape:pageshadow="2"
     inkscape:zoom="0.35"
     inkscape:cx="138.5909"
     inkscape:cy="459.49653"
     inkscape:document-units="mm"
     inkscape:current-layer="layer1"
     showgrid="false"
     inkscape:window-width="1295"
     inkscape:window-height="744"
     inkscape:window-x="65"
     inkscape:window-y="24"
     inkscape:window-maximized="1" />
  <metadata
     id="metadata5">
    <rdf:RDF>
      <cc:Work
         rdf:about="">
        <dc:format>image/svg+xml</dc:format>
        <dc:type
           rdf:resource="http://purl.org/dc/dcmitype/StillImage" />
        <dc:title></dc:title>
      </cc:Work>
    </rdf:RDF>
  </metadata>
  <g
     inkscape:label="Layer 1"
     inkscape:groupmode="layer"
     id="layer1">
    <g
       id="g888"
       transform="matrix(0.92717876,0,0,0.88828243,-814.87095,-330.40892)">
      <g
         id="g825">
	<defs
   id="defs818">
		<rect
   height="327.29999"
   width="75"
   y="376.70001"
   x="922"
   id="rect866" />

	</defs>

	<clipPath
   id="SVGID_2_">
		<use
   id="use820"
   style="overflow:visible"
   xlink:href="#SVGID_1_"
   x="0"
   y="0"
   width="100%"
   height="100%" />

	</clipPath>

	<path
   id="path823"
   clip-path="url(#SVGID_2_)"
   d="m 983,376.8 c -4.4,-0.6 -8.6,0.7 -11.9,3.2 0,0 -0.1,0.1 -0.1,0.1 v -0.2 c 0.2,-1.3 -0.7,-2.4 -2,-2.6 -1.3,-0.2 -2.4,0.7 -2.6,2 v 0 l -1.9,14.2 -1.1,8.6 -38.9,295.6 c -1.3,-0.2 -2.4,0.7 -2.6,2 -0.2,1.3 0.7,2.4 2,2.6 l 13.6,1.8 c 1.3,0.2 2.4,-0.7 2.6,-2 0.2,-1.3 -0.7,-2.4 -2,-2.6 0,0 40.4,-307 40.4,-307 0.1,-0.6 0.4,-1.2 0.9,-1.5 0.5,-0.4 1.1,-0.5 1.7,-0.5 1.3,0.2 2.1,1.3 2,2.6 -0.5,3.8 2.2,7.2 5.9,7.7 1.9,0.2 3.7,-0.3 5.1,-1.4 1.4,-1.1 2.4,-2.7 2.6,-4.5 v 0 c 0,0 0,0 0,0 C 998,386 991.8,378 983,376.8"
   class="st0"
   inkscape:connector-curvature="0" />

</g>
      <g
         id="g827">
</g>
      <g
         id="g829">
</g>
      <g
         id="g831">
</g>
      <g
         id="g833">
</g>
      <g
         id="g835">
</g>
      <g
         id="g837">
</g>
      <g
         id="g839">
</g>
      <g
         id="g841">
</g>
      <g
         id="g843">
</g>
      <g
         id="g845">
</g>
      <g
         id="g847">
</g>
      <g
         id="g849">
</g>
      <g
         id="g851">
</g>
      <g
         id="g853">
</g>
      <g
         id="g855">
</g>
    </g>
  </g>
  <style
     id="style815"
     type="text/css">
	.st0{clip-path:url(#SVGID_2_);}
</style>
</svg>
